<svg width="16" height="16" viewBox="0 0 16 16" fill="none" xmlns="http://www.w3.org/2000/svg">
<g clip-path="url(#clip0_60812_201)">
<path d="M5.375 6.41663C5.44404 6.41663 5.5 6.47259 5.5 6.54163C5.5 6.61066 5.44404 6.66663 5.375 6.66663C5.30596 6.66663 5.25 6.61066 5.25 6.54163C5.25 6.47259 5.30596 6.41663 5.375 6.41663Z" fill="#1A1A2E" stroke="currentColor" stroke-width="1.5"/>
<path d="M10.625 6.41663C10.694 6.41663 10.75 6.47259 10.75 6.54163C10.75 6.61066 10.694 6.66663 10.625 6.66663C10.556 6.66663 10.5 6.61066 10.5 6.54163C10.5 6.47259 10.556 6.41663 10.625 6.41663Z" fill="#1A1A2E" stroke="currentColor" stroke-width="1.5"/>
<path d="M10.9167 9.75C10.3115 10.7964 9.29573 11.5 8 11.5C6.70427 11.5 5.68854 10.7964 5.08333 9.75M15 8C15 11.866 11.866 15 8 15C4.13401 15 1 11.866 1 8C1 4.13401 4.13401 1 8 1C11.866 1 15 4.13401 15 8Z" stroke="currentColor" stroke-width="1.5" stroke-linecap="round" stroke-linejoin="round"/>
</g>
<defs>
<clipPath id="clip0_60812_201">
<rect width="16" height="16" fill="white"/>
</clipPath>
</defs>
</svg>
