<svg width="16" height="16" viewBox="0 0 16 16" fill="none" xmlns="http://www.w3.org/2000/svg">
<g clip-path="url(#clip0_60948_32087)">
<path d="M8.00004 10.6932C9.48749 10.6932 10.6933 9.4874 10.6933 7.99996C10.6933 6.51251 9.48749 5.3067 8.00004 5.3067C6.5126 5.3067 5.30678 6.51251 5.30678 7.99996C5.30678 9.4874 6.5126 10.6932 8.00004 10.6932Z" stroke="currentColor" stroke-width="1.5" stroke-linecap="round" stroke-linejoin="round"/>
<path d="M8.13806 13.2592C8.04783 13.2592 7.95694 13.2592 7.86873 13.2592L5.71076 14.4638C4.87068 14.1812 4.09148 13.7426 3.41408 13.171L3.406 10.7471C3.3582 10.6717 3.31308 10.5956 3.27134 10.5175L1.12548 9.29542C0.956463 8.4405 0.956463 7.56076 1.12548 6.70585L3.26932 5.48715C3.31308 5.40971 3.3582 5.33296 3.40398 5.25754L3.41475 2.83361C4.09155 2.26038 4.87054 1.82017 5.71076 1.53613L7.86537 2.74069C7.95559 2.74069 8.04649 2.74069 8.13469 2.74069L10.2893 1.53613C11.1294 1.81871 11.9086 2.25731 12.586 2.8289L12.5941 5.25283C12.6419 5.32824 12.687 5.40433 12.7287 5.48243L14.8732 6.70383C15.0422 7.55874 15.0422 8.43848 14.8732 9.2934L12.7294 10.5121C12.6856 10.5895 12.6405 10.6663 12.5947 10.7417L12.584 13.1656C11.9076 13.739 11.1291 14.1794 10.2893 14.4638L8.13806 13.2592Z" stroke="currentColor" stroke-width="1.5" stroke-linecap="round" stroke-linejoin="round"/>
</g>
<defs>
<clipPath id="clip0_60948_32087">
<rect width="16" height="16" fill="white"/>
</clipPath>
</defs>
</svg>
